<?xml version="1.0" encoding="UTF-8" standalone="no"?>
<!DOCTYPE svg PUBLIC "-//W3C//DTD SVG 1.1//EN"
 "http://www.w3.org/Graphics/SVG/1.1/DTD/svg11.dtd">
<!-- Generated by graphviz version 2.40.1 (20161225.0304)
 -->
<!-- Title: g Pages: 1 -->
<svg width="1079pt" height="668pt"
 viewBox="0.00 0.00 1079.00 668.00" xmlns="http://www.w3.org/2000/svg" xmlns:xlink="http://www.w3.org/1999/xlink">
<g id="graph0" class="graph" transform="scale(1 1) rotate(0) translate(4 664)">
<title>g</title>
<polygon fill="#ffffff" stroke="transparent" points="-4,4 -4,-664 1075,-664 1075,4 -4,4"/>
<!-- 43 -->
<g id="node1" class="node">
<title>43</title>
<ellipse fill="none" stroke="#000000" cx="27" cy="-94" rx="27" ry="18"/>
<text text-anchor="middle" x="27" y="-90.3" font-family="Times,serif" font-size="14.00" fill="#000000">43</text>
</g>
<!-- 44 -->
<g id="node2" class="node">
<title>44</title>
<ellipse fill="none" stroke="#000000" cx="265" cy="-94" rx="27" ry="18"/>
<text text-anchor="middle" x="265" y="-90.3" font-family="Times,serif" font-size="14.00" fill="#000000">44</text>
</g>
<!-- 43&#45;&gt;44 -->
<g id="edge1" class="edge">
<title>43&#45;&gt;44</title>
<path fill="none" stroke="#000000" d="M54.3016,-94C96.9589,-94 179.5041,-94 227.6403,-94"/>
<polygon fill="#000000" stroke="#000000" points="227.6512,-97.5001 237.6512,-94 227.6512,-90.5001 227.6512,-97.5001"/>
<g id="a_edge1&#45;label"><a xlink:title="[ptype:= @ptype,list:= @list]">
<text text-anchor="middle" x="146" y="-97.8" font-family="Times,serif" font-size="14.00" fill="#000000">partRange</text>
</a>
</g>
</g>
<!-- 45 -->
<g id="node3" class="node">
<title>45</title>
<ellipse fill="none" stroke="#000000" cx="411.5" cy="-72" rx="27" ry="18"/>
<text text-anchor="middle" x="411.5" y="-68.3" font-family="Times,serif" font-size="14.00" fill="#000000">45</text>
</g>
<!-- 44&#45;&gt;45 -->
<g id="edge2" class="edge">
<title>44&#45;&gt;45</title>
<path fill="none" stroke="#000000" d="M291.53,-90.016C314.7207,-86.5334 348.6341,-81.4406 374.4921,-77.5575"/>
<polygon fill="#000000" stroke="#000000" points="375.3029,-80.9751 384.6723,-76.0287 374.2633,-74.0527 375.3029,-80.9751"/>
<g id="a_edge2&#45;label"><a xlink:title="[]">
<text text-anchor="middle" x="337" y="-90.8" font-family="Times,serif" font-size="14.00" fill="#000000">comma</text>
</a>
</g>
</g>
<!-- 47 -->
<g id="node5" class="node">
<title>47</title>
<ellipse fill="none" stroke="#000000" cx="936.5" cy="-146" rx="27" ry="18"/>
<text text-anchor="middle" x="936.5" y="-142.3" font-family="Times,serif" font-size="14.00" fill="#000000">47</text>
</g>
<!-- 44&#45;&gt;47 -->
<g id="edge5" class="edge">
<title>44&#45;&gt;47</title>
<path fill="none" stroke="#000000" d="M281.1882,-108.8176C306.8171,-130.6749 359.2109,-169 411.5,-169 411.5,-169 411.5,-169 777,-169 820.0431,-169 868.9573,-160.6931 901.1399,-154.0637"/>
<polygon fill="#000000" stroke="#000000" points="901.9136,-157.4776 910.9723,-151.9829 900.4643,-150.6293 901.9136,-157.4776"/>
<g id="a_edge5&#45;label"><a xlink:title="[]">
<text text-anchor="middle" x="595.5" y="-172.8" font-family="Times,serif" font-size="14.00" fill="#000000">skip</text>
</a>
</g>
</g>
<!-- 48 -->
<g id="node6" class="node">
<title>48</title>
<ellipse fill="none" stroke="#000000" cx="411.5" cy="-18" rx="27" ry="18"/>
<text text-anchor="middle" x="411.5" y="-14.3" font-family="Times,serif" font-size="14.00" fill="#000000">48</text>
</g>
<!-- 44&#45;&gt;48 -->
<g id="edge6" class="edge">
<title>44&#45;&gt;48</title>
<path fill="none" stroke="#000000" d="M282.3133,-79.8402C290.4237,-73.5972 300.3976,-66.4564 310,-61 331.7346,-48.6496 357.7153,-37.7075 377.9502,-29.9519"/>
<polygon fill="#000000" stroke="#000000" points="379.2489,-33.2029 387.3783,-26.4085 376.7862,-26.6504 379.2489,-33.2029"/>
<g id="a_edge6&#45;label"><a xlink:title="[]">
<text text-anchor="middle" x="337" y="-64.8" font-family="Times,serif" font-size="14.00" fill="#000000">skip</text>
</a>
</g>
</g>
<!-- 44&#45;&gt;48 -->
<g id="edge7" class="edge">
<title>44&#45;&gt;48</title>
<path fill="none" stroke="#000000" d="M269.9045,-76.0982C275.9799,-57.8046 288.286,-30.3779 310,-18 329.7754,-6.7272 355.4371,-6.8307 376.0096,-9.7"/>
<polygon fill="#000000" stroke="#000000" points="375.5098,-13.1649 385.948,-11.3496 376.6561,-6.2593 375.5098,-13.1649"/>
<g id="a_edge7&#45;label"><a xlink:title="[]">
<text text-anchor="middle" x="337" y="-21.8" font-family="Times,serif" font-size="14.00" fill="#000000">comma</text>
</a>
</g>
</g>
<!-- 46 -->
<g id="node4" class="node">
<title>46</title>
<ellipse fill="none" stroke="#000000" cx="535" cy="-108" rx="27" ry="18"/>
<text text-anchor="middle" x="535" y="-104.3" font-family="Times,serif" font-size="14.00" fill="#000000">46</text>
</g>
<!-- 45&#45;&gt;46 -->
<g id="edge3" class="edge">
<title>45&#45;&gt;46</title>
<path fill="none" stroke="#000000" d="M436.4921,-79.2851C454.8219,-84.6283 479.9459,-91.9518 500.2329,-97.8655"/>
<polygon fill="#000000" stroke="#000000" points="499.4652,-101.2873 510.0451,-100.7257 501.4242,-94.567 499.4652,-101.2873"/>
<g id="a_edge3&#45;label"><a xlink:title="[]">
<text text-anchor="middle" x="474.5" y="-98.8" font-family="Times,serif" font-size="14.00" fill="#000000">space</text>
</a>
</g>
</g>
<!-- 46&#45;&gt;44 -->
<g id="edge4" class="edge">
<title>46&#45;&gt;44</title>
<path fill="none" stroke="#000000" d="M507.8984,-110.8006C502.0046,-111.3001 495.7983,-111.7428 490,-112 410.0342,-115.547 389.1405,-117.9953 310,-106 306.5375,-105.4752 302.9585,-104.7845 299.4016,-103.999"/>
<polygon fill="#000000" stroke="#000000" points="300.0955,-100.5657 289.5506,-101.5935 298.4349,-107.3659 300.0955,-100.5657"/>
<g id="a_edge4&#45;label"><a xlink:title="[#ptype= @ptype,list:=append(#list,@list)]">
<text text-anchor="middle" x="411.5" y="-118.8" font-family="Times,serif" font-size="14.00" fill="#000000">partRange</text>
</a>
</g>
</g>
<!-- label_47 -->
<g id="node21" class="node">
<title>label_47</title>
<text text-anchor="middle" x="1041" y="-142.3" font-family="Times,serif" font-size="14.00" fill="#000000">partList</text>
</g>
<!-- 47&#45;&gt;label_47 -->
<g id="edge31" class="edge">
<title>47&#45;&gt;label_47</title>
</g>
<!-- 49 -->
<g id="node7" class="node">
<title>49</title>
<ellipse fill="none" stroke="#000000" cx="535" cy="-48" rx="27" ry="18"/>
<text text-anchor="middle" x="535" y="-44.3" font-family="Times,serif" font-size="14.00" fill="#000000">49</text>
</g>
<!-- 48&#45;&gt;49 -->
<g id="edge8" class="edge">
<title>48&#45;&gt;49</title>
<path fill="none" stroke="#000000" d="M437.0893,-24.216C455.1387,-28.6005 479.5524,-34.5309 499.4856,-39.373"/>
<polygon fill="#000000" stroke="#000000" points="498.8999,-42.8325 509.4435,-41.7919 500.5523,-36.0303 498.8999,-42.8325"/>
<g id="a_edge8&#45;label"><a xlink:title="[]">
<text text-anchor="middle" x="474.5" y="-40.8" font-family="Times,serif" font-size="14.00" fill="#000000">space</text>
</a>
</g>
</g>
<!-- 50 -->
<g id="node8" class="node">
<title>50</title>
<ellipse fill="none" stroke="#000000" cx="656" cy="-103" rx="27" ry="18"/>
<text text-anchor="middle" x="656" y="-99.3" font-family="Times,serif" font-size="14.00" fill="#000000">50</text>
</g>
<!-- 49&#45;&gt;50 -->
<g id="edge9" class="edge">
<title>49&#45;&gt;50</title>
<path fill="none" stroke="#000000" d="M557.4756,-58.2162C576.3226,-66.783 603.4489,-79.1131 624.4685,-88.6675"/>
<polygon fill="#000000" stroke="#000000" points="623.0928,-91.8867 633.6448,-92.8385 625.9894,-85.5142 623.0928,-91.8867"/>
<g id="a_edge9&#45;label"><a xlink:title="[]">
<text text-anchor="middle" x="595.5" y="-86.8" font-family="Times,serif" font-size="14.00" fill="#000000">and</text>
</a>
</g>
</g>
<!-- 51 -->
<g id="node9" class="node">
<title>51</title>
<ellipse fill="none" stroke="#000000" cx="777" cy="-123" rx="27" ry="18"/>
<text text-anchor="middle" x="777" y="-119.3" font-family="Times,serif" font-size="14.00" fill="#000000">51</text>
</g>
<!-- 50&#45;&gt;51 -->
<g id="edge10" class="edge">
<title>50&#45;&gt;51</title>
<path fill="none" stroke="#000000" d="M682.2552,-107.3397C699.2624,-110.1508 721.6531,-113.8517 740.3973,-116.95"/>
<polygon fill="#000000" stroke="#000000" points="739.9413,-120.422 750.3782,-118.5997 741.0829,-113.5157 739.9413,-120.422"/>
<g id="a_edge10&#45;label"><a xlink:title="[]">
<text text-anchor="middle" x="716.5" y="-119.8" font-family="Times,serif" font-size="14.00" fill="#000000">space</text>
</a>
</g>
</g>
<!-- 51&#45;&gt;47 -->
<g id="edge28" class="edge">
<title>51&#45;&gt;47</title>
<path fill="none" stroke="#000000" d="M803.6967,-126.8497C829.9982,-130.6424 870.3894,-136.4668 899.7222,-140.6966"/>
<polygon fill="#000000" stroke="#000000" points="899.5849,-144.2129 909.9821,-142.1761 900.584,-137.2846 899.5849,-144.2129"/>
<g id="a_edge28&#45;label"><a xlink:title="[#ptype= @ptype,list:=append(#list,@list)]">
<text text-anchor="middle" x="851.5" y="-141.8" font-family="Times,serif" font-size="14.00" fill="#000000">partRange</text>
</a>
</g>
</g>
<!-- 36 -->
<g id="node10" class="node">
<title>36</title>
<ellipse fill="none" stroke="#000000" cx="27" cy="-258" rx="27" ry="18"/>
<text text-anchor="middle" x="27" y="-254.3" font-family="Times,serif" font-size="14.00" fill="#000000">36</text>
</g>
<!-- 37 -->
<g id="node11" class="node">
<title>37</title>
<ellipse fill="none" stroke="#000000" cx="265" cy="-304" rx="27" ry="18"/>
<text text-anchor="middle" x="265" y="-300.3" font-family="Times,serif" font-size="14.00" fill="#000000">37</text>
</g>
<!-- 36&#45;&gt;37 -->
<g id="edge11" class="edge">
<title>36&#45;&gt;37</title>
<path fill="none" stroke="#000000" d="M51.1157,-266.1887C57.825,-268.2787 65.1508,-270.3877 72,-272 136.8641,-287.269 154.3051,-284.8345 220,-296 222.8602,-296.4861 225.8213,-296.9966 228.7962,-297.5145"/>
<polygon fill="#000000" stroke="#000000" points="228.3819,-300.9952 238.8369,-299.2796 229.5939,-294.101 228.3819,-300.9952"/>
<g id="a_edge11&#45;label"><a xlink:title="[ptype:= @ptype,list:=list((@text)+ /rangeStart)]">
<text text-anchor="middle" x="146" y="-299.8" font-family="Times,serif" font-size="14.00" fill="#000000">part</text>
</a>
</g>
</g>
<!-- 41 -->
<g id="node15" class="node">
<title>41</title>
<ellipse fill="none" stroke="#000000" cx="777" cy="-258" rx="27" ry="18"/>
<text text-anchor="middle" x="777" y="-254.3" font-family="Times,serif" font-size="14.00" fill="#000000">41</text>
</g>
<!-- 36&#45;&gt;41 -->
<g id="edge18" class="edge">
<title>36&#45;&gt;41</title>
<path fill="none" stroke="#000000" d="M54.1266,-258C98.3079,-258 188.559,-258 265,-258 265,-258 265,-258 656,-258 683.9975,-258 715.639,-258 739.5418,-258"/>
<polygon fill="#000000" stroke="#000000" points="739.6081,-261.5001 749.608,-258 739.608,-254.5001 739.6081,-261.5001"/>
<g id="a_edge18&#45;label"><a xlink:title="[ptype:= @ptype,list:=list(@text)]">
<text text-anchor="middle" x="474.5" y="-261.8" font-family="Times,serif" font-size="14.00" fill="#000000">part</text>
</a>
</g>
</g>
<!-- 42 -->
<g id="node16" class="node">
<title>42</title>
<ellipse fill="none" stroke="#000000" cx="337" cy="-217" rx="27" ry="18"/>
<text text-anchor="middle" x="337" y="-213.3" font-family="Times,serif" font-size="14.00" fill="#000000">42</text>
</g>
<!-- 36&#45;&gt;42 -->
<g id="edge16" class="edge">
<title>36&#45;&gt;42</title>
<path fill="none" stroke="#000000" d="M44.2833,-243.7989C52.2301,-238.1105 62.083,-232.1642 72,-229 150.1946,-204.0507 247.9505,-208.0238 300.1332,-212.741"/>
<polygon fill="#000000" stroke="#000000" points="299.9581,-216.2403 310.2482,-213.7173 300.6307,-209.2726 299.9581,-216.2403"/>
<g id="a_edge16&#45;label"><a xlink:title="[ptype:= @ptype,text:= @text]">
<text text-anchor="middle" x="146" y="-232.8" font-family="Times,serif" font-size="14.00" fill="#000000">part</text>
</a>
</g>
</g>
<!-- 38 -->
<g id="node12" class="node">
<title>38</title>
<ellipse fill="none" stroke="#000000" cx="411.5" cy="-304" rx="27" ry="18"/>
<text text-anchor="middle" x="411.5" y="-300.3" font-family="Times,serif" font-size="14.00" fill="#000000">38</text>
</g>
<!-- 37&#45;&gt;38 -->
<g id="edge12" class="edge">
<title>37&#45;&gt;38</title>
<path fill="none" stroke="#000000" d="M292.2122,-304C315.3395,-304 348.7635,-304 374.3511,-304"/>
<polygon fill="#000000" stroke="#000000" points="374.4336,-307.5001 384.4335,-304 374.4335,-300.5001 374.4336,-307.5001"/>
<g id="a_edge12&#45;label"><a xlink:title="[]">
<text text-anchor="middle" x="337" y="-307.8" font-family="Times,serif" font-size="14.00" fill="#000000">space</text>
</a>
</g>
</g>
<!-- 39 -->
<g id="node13" class="node">
<title>39</title>
<ellipse fill="none" stroke="#000000" cx="535" cy="-304" rx="27" ry="18"/>
<text text-anchor="middle" x="535" y="-300.3" font-family="Times,serif" font-size="14.00" fill="#000000">39</text>
</g>
<!-- 38&#45;&gt;39 -->
<g id="edge13" class="edge">
<title>38&#45;&gt;39</title>
<path fill="none" stroke="#000000" d="M438.6026,-304C455.9765,-304 478.7608,-304 497.816,-304"/>
<polygon fill="#000000" stroke="#000000" points="497.9607,-307.5001 507.9606,-304 497.9606,-300.5001 497.9607,-307.5001"/>
<g id="a_edge13&#45;label"><a xlink:title="[]">
<text text-anchor="middle" x="474.5" y="-307.8" font-family="Times,serif" font-size="14.00" fill="#000000">to</text>
</a>
</g>
</g>
<!-- 40 -->
<g id="node14" class="node">
<title>40</title>
<ellipse fill="none" stroke="#000000" cx="656" cy="-304" rx="27" ry="18"/>
<text text-anchor="middle" x="656" y="-300.3" font-family="Times,serif" font-size="14.00" fill="#000000">40</text>
</g>
<!-- 39&#45;&gt;40 -->
<g id="edge14" class="edge">
<title>39&#45;&gt;40</title>
<path fill="none" stroke="#000000" d="M562.1548,-304C578.8909,-304 600.5781,-304 618.8874,-304"/>
<polygon fill="#000000" stroke="#000000" points="618.9359,-307.5001 628.9359,-304 618.9358,-300.5001 618.9359,-307.5001"/>
<g id="a_edge14&#45;label"><a xlink:title="[]">
<text text-anchor="middle" x="595.5" y="-307.8" font-family="Times,serif" font-size="14.00" fill="#000000">space</text>
</a>
</g>
</g>
<!-- 40&#45;&gt;41 -->
<g id="edge15" class="edge">
<title>40&#45;&gt;41</title>
<path fill="none" stroke="#000000" d="M679.6173,-295.0215C697.9396,-288.056 723.56,-278.316 743.9232,-270.5747"/>
<polygon fill="#000000" stroke="#000000" points="745.3387,-273.781 753.4423,-266.9558 742.8512,-267.2378 745.3387,-273.781"/>
<g id="a_edge15&#45;label"><a xlink:title="[#ptype= @ptype,list:=collect((@text)+ /rangeEnd,#list)]">
<text text-anchor="middle" x="716.5" y="-289.8" font-family="Times,serif" font-size="14.00" fill="#000000">part</text>
</a>
</g>
</g>
<!-- label_41 -->
<g id="node20" class="node">
<title>label_41</title>
<text text-anchor="middle" x="936.5" y="-254.3" font-family="Times,serif" font-size="14.00" fill="#000000">partRange</text>
</g>
<!-- 41&#45;&gt;label_41 -->
<g id="edge30" class="edge">
<title>41&#45;&gt;label_41</title>
</g>
<!-- 42&#45;&gt;41 -->
<g id="edge17" class="edge">
<title>42&#45;&gt;41</title>
<path fill="none" stroke="#000000" d="M364.1312,-216.3727C391.8641,-215.7861 436.1821,-215 474.5,-215 474.5,-215 474.5,-215 656,-215 688.868,-215 724.0094,-229.2613 747.9048,-241.3578"/>
<polygon fill="#000000" stroke="#000000" points="746.3132,-244.4752 756.7945,-246.0221 749.5655,-238.2766 746.3132,-244.4752"/>
<g id="a_edge17&#45;label"><a xlink:title="[#ptype=&gt; @ptype,list:=map_prepend(@list,#text)]">
<text text-anchor="middle" x="535" y="-218.8" font-family="Times,serif" font-size="14.00" fill="#000000">partList</text>
</a>
</g>
</g>
<!-- 34 -->
<g id="node17" class="node">
<title>34</title>
<ellipse fill="none" stroke="#000000" cx="27" cy="-487" rx="27" ry="18"/>
<text text-anchor="middle" x="27" y="-483.3" font-family="Times,serif" font-size="14.00" fill="#000000">34</text>
</g>
<!-- 35 -->
<g id="node18" class="node">
<title>35</title>
<ellipse fill="none" stroke="#000000" cx="265" cy="-487" rx="27" ry="18"/>
<text text-anchor="middle" x="265" y="-483.3" font-family="Times,serif" font-size="14.00" fill="#000000">35</text>
</g>
<!-- 34&#45;&gt;35 -->
<g id="edge19" class="edge">
<title>34&#45;&gt;35</title>
<path fill="none" stroke="#000000" d="M30.5828,-505.0728C37.4323,-537.5713 53.3717,-603.7355 72,-617 125.5819,-655.1536 166.4181,-655.1536 220,-617 236.8819,-604.979 251.5555,-549.5121 259.2564,-515.0293"/>
<polygon fill="#000000" stroke="#000000" points="262.7166,-515.5876 261.4172,-505.0728 255.8759,-514.103 262.7166,-515.5876"/>
<g id="a_edge19&#45;label"><a xlink:title="[ptype:=number,text:=(/)+(@label)]">
<text text-anchor="middle" x="146" y="-648.8" font-family="Times,serif" font-size="14.00" fill="#000000">number</text>
</a>
</g>
</g>
<!-- 34&#45;&gt;35 -->
<g id="edge20" class="edge">
<title>34&#45;&gt;35</title>
<path fill="none" stroke="#000000" d="M29.9754,-504.9856C34.6602,-526.844 46.0554,-562.8084 72,-579 99.9012,-596.4127 192.0988,-596.4127 220,-579 242.2961,-565.0853 253.8472,-536.568 259.6283,-514.9498"/>
<polygon fill="#000000" stroke="#000000" points="263.0893,-515.5268 262.0246,-504.9856 256.2833,-513.89 263.0893,-515.5268"/>
<g id="a_edge20&#45;label"><a xlink:title="[ptype:=upperLetter,text:=(/)+(@label)]">
<text text-anchor="middle" x="146" y="-595.8" font-family="Times,serif" font-size="14.00" fill="#000000">upperLetter</text>
</a>
</g>
</g>
<!-- 34&#45;&gt;35 -->
<g id="edge21" class="edge">
<title>34&#45;&gt;35</title>
<path fill="none" stroke="#000000" d="M35.8481,-504.1563C43.4974,-516.9417 55.865,-533.4428 72,-541 101.7838,-554.95 190.2162,-554.95 220,-541 232.7315,-535.0369 243.1174,-523.5051 250.6904,-512.6242"/>
<polygon fill="#000000" stroke="#000000" points="253.6731,-514.4571 256.1519,-504.1563 247.7904,-510.663 253.6731,-514.4571"/>
<g id="a_edge21&#45;label"><a xlink:title="[ptype:=brackettedNumber,text:=(/)+(@label)]">
<text text-anchor="middle" x="146" y="-554.8" font-family="Times,serif" font-size="14.00" fill="#000000">brackettedNumber</text>
</a>
</g>
</g>
<!-- 34&#45;&gt;35 -->
<g id="edge22" class="edge">
<title>34&#45;&gt;35</title>
<path fill="none" stroke="#000000" d="M49.9489,-496.8578C56.9011,-499.3774 64.6461,-501.7315 72,-503 136.8206,-514.1808 155.1794,-514.1808 220,-503 224.0217,-502.3063 228.1603,-501.2879 232.2222,-500.0954"/>
<polygon fill="#000000" stroke="#000000" points="233.6481,-503.3107 242.0511,-496.8578 231.4581,-496.6621 233.6481,-503.3107"/>
<g id="a_edge22&#45;label"><a xlink:title="[ptype:=brackettedLetter,text:=(/)+(@label)]">
<text text-anchor="middle" x="146" y="-514.8" font-family="Times,serif" font-size="14.00" fill="#000000">brackettedLetter</text>
</a>
</g>
</g>
<!-- 34&#45;&gt;35 -->
<g id="edge23" class="edge">
<title>34&#45;&gt;35</title>
<path fill="none" stroke="#000000" d="M54.1129,-484.8995C60.006,-484.5248 66.2091,-484.1928 72,-484 137.7413,-481.8111 154.2587,-481.8111 220,-484 222.5335,-484.0844 225.1459,-484.1954 227.7768,-484.3249"/>
<polygon fill="#000000" stroke="#000000" points="227.7046,-487.8264 237.8871,-484.8995 228.1018,-480.8376 227.7046,-487.8264"/>
<g id="a_edge23&#45;label"><a xlink:title="[ptype:=brackettedLowerRoman,text:=(/)+(@label)]">
<text text-anchor="middle" x="146" y="-487.8" font-family="Times,serif" font-size="14.00" fill="#000000">brackettedLowerRoman</text>
</a>
</g>
</g>
<!-- 34&#45;&gt;35 -->
<g id="edge24" class="edge">
<title>34&#45;&gt;35</title>
<path fill="none" stroke="#000000" d="M46.3059,-474.0266C53.9648,-469.613 63.0666,-465.2333 72,-463 135.8138,-447.0465 156.1862,-447.0465 220,-463 225.5834,-464.3958 231.2325,-466.6301 236.5541,-469.187"/>
<polygon fill="#000000" stroke="#000000" points="235.2187,-472.4403 245.6941,-474.0266 238.4943,-466.254 235.2187,-472.4403"/>
<g id="a_edge24&#45;label"><a xlink:title="[ptype:=letterDottedPart,text:=(/)+(@label)]">
<text text-anchor="middle" x="146" y="-466.8" font-family="Times,serif" font-size="14.00" fill="#000000">letterDottedPart</text>
</a>
</g>
</g>
<!-- 34&#45;&gt;35 -->
<g id="edge25" class="edge">
<title>34&#45;&gt;35</title>
<path fill="none" stroke="#000000" d="M35.6136,-469.802C43.2061,-456.7485 55.6111,-439.7664 72,-432 131.4414,-403.832 160.5586,-403.832 220,-432 232.9319,-438.1281 243.3833,-449.9942 250.9472,-461.1405"/>
<polygon fill="#000000" stroke="#000000" points="248.1042,-463.1947 256.3864,-469.802 254.0322,-459.472 248.1042,-463.1947"/>
<g id="a_edge25&#45;label"><a xlink:title="[ptype:=numberDottedPart,text:=(/)+(@label)]">
<text text-anchor="middle" x="146" y="-435.8" font-family="Times,serif" font-size="14.00" fill="#000000">numberDottedPart</text>
</a>
</g>
</g>
<!-- 34&#45;&gt;35 -->
<g id="edge26" class="edge">
<title>34&#45;&gt;35</title>
<path fill="none" stroke="#000000" d="M29.5736,-469.0496C33.8955,-446.3565 44.9707,-408.1815 72,-391 127.5118,-355.7132 164.4882,-355.7132 220,-391 243.3339,-405.8325 254.778,-436.3105 260.2515,-458.9669"/>
<polygon fill="#000000" stroke="#000000" points="256.8965,-460.0124 262.4264,-469.0496 263.7391,-458.5364 256.8965,-460.0124"/>
<g id="a_edge26&#45;label"><a xlink:title="[ptype:=romanNumber,text:=(/)+(@label)]">
<text text-anchor="middle" x="146" y="-394.8" font-family="Times,serif" font-size="14.00" fill="#000000">romanNumber</text>
</a>
</g>
</g>
<!-- 34&#45;&gt;35 -->
<g id="edge27" class="edge">
<title>34&#45;&gt;35</title>
<path fill="none" stroke="#000000" d="M30.0299,-468.9242C36.274,-434.1067 51.7072,-359.8566 72,-345 125.0745,-306.1436 166.9255,-306.1436 220,-345 238.4696,-358.5218 252.9137,-421.2443 260.0677,-458.6566"/>
<polygon fill="#000000" stroke="#000000" points="256.7068,-459.7292 261.9701,-468.9242 263.5897,-458.4539 256.7068,-459.7292"/>
<g id="a_edge27&#45;label"><a xlink:title="[ptype:=brackettedRomanNumber,text:=(/)+(@label)]">
<text text-anchor="middle" x="146" y="-348.8" font-family="Times,serif" font-size="14.00" fill="#000000">brackettedRomanNumber</text>
</a>
</g>
</g>
<!-- label_35 -->
<g id="node19" class="node">
<title>label_35</title>
<text text-anchor="middle" x="411.5" y="-483.3" font-family="Times,serif" font-size="14.00" fill="#000000">part</text>
</g>
<!-- 35&#45;&gt;label_35 -->
<g id="edge29" class="edge">
<title>35&#45;&gt;label_35</title>
</g>
</g>
</svg>
